<svg width="1061" height="1154" viewBox="0 0 1061 1154" fill="none" xmlns="http://www.w3.org/2000/svg">
<g opacity="0.15">
<circle cx="530.5" cy="530.5" r="528" stroke="white" stroke-width="5"/>
<path d="M975.406 530.499C975.406 776.21 775.992 975.402 529.996 975.402C284 975.402 84.5859 776.21 84.5859 530.499C84.5859 284.788 284 85.5955 529.996 85.5955C775.992 85.5955 975.406 284.788 975.406 530.499Z" stroke="white" stroke-width="5"/>
<path d="M903.451 530.501C903.451 737.041 736.244 904.469 529.99 904.469C323.737 904.469 156.529 737.041 156.529 530.501C156.529 323.961 323.737 156.534 529.99 156.534C736.244 156.534 903.451 323.961 903.451 530.501Z" stroke="white" stroke-width="5"/>
<circle cx="530.5" cy="531.512" r="317.219" stroke="white" stroke-width="5"/>
</g>
</svg>
