<svg width="121" height="24" viewBox="0 0 121 24" fill="none" xmlns="http://www.w3.org/2000/svg">
<path fill-rule="evenodd" clip-rule="evenodd" d="M5.94781 8.90968C6.08993 8.73904 6.12486 8.72234 6.26838 8.55869C7.4315 7.23138 9.71464 6.41155 11.4109 7.00871C12.4569 7.37698 12.3643 6.98599 12.7551 6.07608C12.9377 5.65112 14.0841 3.13182 13.9765 2.84761C13.7561 2.2652 11.0021 2.00661 10.3404 2.00117C7.3327 1.97632 4.38506 2.99942 2.51532 5.29604C-5.10637 14.6573 5.96577 27.3246 17.3982 19.0441C18.2785 18.4066 18.1771 18.6871 18.8829 19.3526C23.5875 23.7871 30.8744 22.5871 34.4556 17.3637C37.1086 13.4946 36.1922 7.96269 32.8608 4.74586C29.6271 1.62339 24.5696 1.30753 20.667 3.24752C19.981 3.59619 18.9146 4.36943 18.332 4.993C16.4902 6.96464 15.4634 9.07043 15.3718 11.7483C15.3273 13.0459 15.1746 13.9015 14.4011 15.0083C13.94 15.6679 12.8964 16.5078 12.0904 16.7178C11.759 16.8042 11.7602 16.9077 11.1556 17.0193C6.45162 17.8865 3.02353 12.9456 5.77834 9.14342C5.83463 9.06558 5.89112 8.98773 5.94741 8.90988L5.94781 8.90968ZM20.5792 11.0081C21.468 5.76508 29.8954 5.23353 30.9016 11.0918C31.2477 13.1063 30.292 15.3334 28.4358 16.4115C24.5346 18.6768 20.0055 15.6617 20.5794 11.0081H20.5792Z" fill="#0B5FFF"/>
<path d="M45.528 12.368C45.528 11.2587 45.768 10.272 46.248 9.408C46.728 8.53333 47.3947 7.856 48.248 7.376C49.112 6.88533 50.088 6.64 51.176 6.64C52.5093 6.64 53.6507 6.992 54.6 7.696C55.5493 8.4 56.184 9.36 56.504 10.576H53.496C53.272 10.1067 52.952 9.74933 52.536 9.504C52.1307 9.25867 51.6667 9.136 51.144 9.136C50.3013 9.136 49.6187 9.42933 49.096 10.016C48.5733 10.6027 48.312 11.3867 48.312 12.368C48.312 13.3493 48.5733 14.1333 49.096 14.72C49.6187 15.3067 50.3013 15.6 51.144 15.6C51.6667 15.6 52.1307 15.4773 52.536 15.232C52.952 14.9867 53.272 14.6293 53.496 14.16H56.504C56.184 15.376 55.5493 16.336 54.6 17.04C53.6507 17.7333 52.5093 18.08 51.176 18.08C50.088 18.08 49.112 17.84 48.248 17.36C47.3947 16.8693 46.728 16.192 46.248 15.328C45.768 14.464 45.528 13.4773 45.528 12.368ZM62.2435 18.128C61.3688 18.128 60.5795 17.9413 59.8755 17.568C59.1822 17.1947 58.6328 16.6613 58.2275 15.968C57.8328 15.2747 57.6355 14.464 57.6355 13.536C57.6355 12.6187 57.8382 11.8133 58.2435 11.12C58.6488 10.416 59.2035 9.87733 59.9075 9.504C60.6115 9.13067 61.4008 8.944 62.2755 8.944C63.1502 8.944 63.9395 9.13067 64.6435 9.504C65.3475 9.87733 65.9022 10.416 66.3075 11.12C66.7128 11.8133 66.9155 12.6187 66.9155 13.536C66.9155 14.4533 66.7075 15.264 66.2915 15.968C65.8862 16.6613 65.3262 17.1947 64.6115 17.568C63.9075 17.9413 63.1182 18.128 62.2435 18.128ZM62.2435 15.76C62.7662 15.76 63.2088 15.568 63.5715 15.184C63.9448 14.8 64.1315 14.2507 64.1315 13.536C64.1315 12.8213 63.9502 12.272 63.5875 11.888C63.2355 11.504 62.7982 11.312 62.2755 11.312C61.7422 11.312 61.2995 11.504 60.9475 11.888C60.5955 12.2613 60.4195 12.8107 60.4195 13.536C60.4195 14.2507 60.5902 14.8 60.9315 15.184C61.2835 15.568 61.7208 15.76 62.2435 15.76ZM71.103 6.16V18H68.367V6.16H71.103ZM75.8218 6.16V18H73.0858V6.16H75.8218ZM77.2605 13.52C77.2605 12.6027 77.4312 11.7973 77.7725 11.104C78.1245 10.4107 78.5992 9.87733 79.1965 9.504C79.7938 9.13067 80.4605 8.944 81.1965 8.944C81.8258 8.944 82.3752 9.072 82.8445 9.328C83.3245 9.584 83.6925 9.92 83.9485 10.336V9.072H86.6845V18H83.9485V16.736C83.6818 17.152 83.3085 17.488 82.8285 17.744C82.3592 18 81.8098 18.128 81.1805 18.128C80.4552 18.128 79.7938 17.9413 79.1965 17.568C78.5992 17.184 78.1245 16.6453 77.7725 15.952C77.4312 15.248 77.2605 14.4373 77.2605 13.52ZM83.9485 13.536C83.9485 12.8533 83.7565 12.3147 83.3725 11.92C82.9992 11.5253 82.5405 11.328 81.9965 11.328C81.4525 11.328 80.9885 11.5253 80.6045 11.92C80.2312 12.304 80.0445 12.8373 80.0445 13.52C80.0445 14.2027 80.2312 14.7467 80.6045 15.152C80.9885 15.5467 81.4525 15.744 81.9965 15.744C82.5405 15.744 82.9992 15.5467 83.3725 15.152C83.7565 14.7573 83.9485 14.2187 83.9485 13.536ZM91.3999 10.336C91.6559 9.92 92.0239 9.584 92.5039 9.328C92.9839 9.072 93.5332 8.944 94.1519 8.944C94.8879 8.944 95.5545 9.13067 96.1519 9.504C96.7492 9.87733 97.2185 10.4107 97.5599 11.104C97.9119 11.7973 98.0879 12.6027 98.0879 13.52C98.0879 14.4373 97.9119 15.248 97.5599 15.952C97.2185 16.6453 96.7492 17.184 96.1519 17.568C95.5545 17.9413 94.8879 18.128 94.1519 18.128C93.5225 18.128 92.9732 18.0053 92.5039 17.76C92.0345 17.504 91.6665 17.168 91.3999 16.752V18H88.6639V6.16H91.3999V10.336ZM95.3039 13.52C95.3039 12.8373 95.1119 12.304 94.7279 11.92C94.3545 11.5253 93.8905 11.328 93.3359 11.328C92.7919 11.328 92.3279 11.5253 91.9439 11.92C91.5705 12.3147 91.3839 12.8533 91.3839 13.536C91.3839 14.2187 91.5705 14.7573 91.9439 15.152C92.3279 15.5467 92.7919 15.744 93.3359 15.744C93.8799 15.744 94.3439 15.5467 94.7279 15.152C95.1119 14.7467 95.3039 14.2027 95.3039 13.52ZM106.403 11.248V13.52H99.3633V11.248H106.403ZM114.117 18.112C113.061 18.112 112.09 17.8667 111.205 17.376C110.33 16.8853 109.631 16.2027 109.109 15.328C108.596 14.4427 108.34 13.4507 108.34 12.352C108.34 11.2533 108.596 10.2667 109.109 9.392C109.631 8.51733 110.33 7.83467 111.205 7.344C112.09 6.85333 113.061 6.608 114.117 6.608C115.173 6.608 116.138 6.85333 117.013 7.344C117.898 7.83467 118.591 8.51733 119.093 9.392C119.605 10.2667 119.861 11.2533 119.861 12.352C119.861 13.4507 119.605 14.4427 119.093 15.328C118.581 16.2027 117.887 16.8853 117.013 17.376C116.138 17.8667 115.173 18.112 114.117 18.112ZM114.117 15.616C115.013 15.616 115.727 15.3173 116.26 14.72C116.805 14.1227 117.077 13.3333 117.077 12.352C117.077 11.36 116.805 10.5707 116.26 9.984C115.727 9.38667 115.013 9.088 114.117 9.088C113.21 9.088 112.485 9.38133 111.941 9.968C111.407 10.5547 111.141 11.3493 111.141 12.352C111.141 13.344 111.407 14.1387 111.941 14.736C112.485 15.3227 113.21 15.616 114.117 15.616Z" fill="#1D1E20"/>
</svg>
