<svg width="56" height="32" viewBox="0 0 56 32" fill="none" xmlns="http://www.w3.org/2000/svg">
<g clip-path="url(#clip0_13_596)">
<path fill-rule="evenodd" clip-rule="evenodd" d="M9.25201 10.748C9.47308 10.4825 9.52742 10.4566 9.75067 10.202C11.56 8.1373 15.1115 6.862 17.7502 7.79092C19.3772 8.36379 19.2331 7.75558 19.8411 6.34016C20.1252 5.67911 21.9084 1.7602 21.7411 1.31809C21.3983 0.412124 17.1143 0.00987497 16.0849 0.00141928C11.4063 -0.0372353 6.82107 1.55425 3.91259 5.12677C-7.94337 19.6887 9.27995 39.3934 27.0637 26.5127C28.4331 25.521 28.2753 25.9574 29.3733 26.9926C36.6915 33.8906 48.0268 32.024 53.5975 23.8987C57.7244 17.8801 56.2989 9.27489 51.1166 4.27094C46.0864 -0.58625 38.2192 -1.07759 32.1485 1.94019C31.0813 2.48256 29.4226 3.68538 28.5163 4.65537C25.6513 7.72237 24.054 10.998 23.9115 15.1637C23.8423 17.1822 23.6047 18.513 22.4015 20.2347C21.6843 21.2608 20.0609 22.5672 18.8071 22.894C18.2917 23.0284 18.2936 23.1893 17.353 23.363C10.0357 24.712 4.70313 17.026 8.98839 11.1116C9.07595 10.9905 9.16382 10.8694 9.25138 10.7483L9.25201 10.748ZM32.0119 14.0122C33.3946 5.85638 46.5037 5.02953 48.069 14.1423C48.6074 17.2761 47.1207 20.7405 44.2333 22.4174C38.1649 25.9413 31.1195 21.2512 32.0122 14.0122H32.0119Z" fill="#0B5FFF"/>
</g>
<defs>
<clipPath id="clip0_13_596">
<rect width="56" height="31.2308" fill="white"/>
</clipPath>
</defs>
</svg>
