<svg width="57" height="68" viewBox="0 0 57 68" fill="none" xmlns="http://www.w3.org/2000/svg">
<path fill-rule="evenodd" clip-rule="evenodd" d="M4.60683 66.9618C6.84683 66.5418 12.5266 66.3818 14.5666 66.6618C15.9466 66.8618 16.3868 66.8618 16.6068 66.6618C17.6868 65.7618 15.1468 64.9019 10.9068 64.7019L8.20683 64.5819L9.50682 64.1019C14.5468 62.2419 17.0068 60.6419 15.7468 60.0019C14.4268 59.3219 14.0868 59.3818 11.1868 60.6618C9.68682 61.3218 8.40663 61.8819 8.36663 61.8819C8.32663 61.8819 8.64683 61.4218 9.10683 60.8418C11.4868 57.8418 11.7268 55.6619 9.58683 56.5819C8.84683 56.9019 7.22683 58.4818 5.30683 60.7418C4.48683 61.7218 2.94683 63.2819 1.90683 64.2219C-1.29317 67.1419 -0.51317 67.9218 4.60683 66.9618ZM21.1468 58.7019C22.9268 57.9419 26.8468 55.3618 26.9868 54.8618C27.4268 53.2018 24.7066 53.3019 22.1666 55.0219C21.2066 55.6819 19.7266 56.6418 18.8666 57.1618C16.0466 58.9018 17.8468 60.1019 21.1468 58.7019ZM30.8666 52.5418C32.7666 51.5218 36.1868 48.0219 36.0868 47.2419C35.8868 45.9019 33.7468 46.4219 32.1268 48.1819L29.6666 50.8418C28.9066 51.6418 28.3468 52.4218 28.3868 52.5618C28.5068 52.9418 30.1266 52.9418 30.8666 52.5418ZM38.3666 44.2619C39.9466 43.3419 41.5468 37.5819 40.6268 36.1619C39.4468 34.3619 37.4668 37.5419 35.9868 43.6619C35.7868 44.4219 37.4066 44.8219 38.3666 44.2619ZM32.6068 42.0819C35.2468 41.3819 35.6868 41.0619 34.9268 40.4419C34.3468 39.9819 33.0468 39.9619 31.8868 40.4219C30.1668 41.0819 25.4868 40.4819 25.1068 41.0819C24.3468 42.3219 29.2668 42.9819 32.6068 42.0819ZM23.2468 39.9819C23.3068 39.8219 23.2668 39.2619 23.1268 38.7419C22.6668 36.7819 23.4668 33.4819 24.8268 31.8219C25.8668 30.5419 25.9068 30.3419 25.2068 30.1819C22.2668 29.4419 19.4268 34.4419 20.5268 38.4019C20.9268 39.8019 22.8668 40.9619 23.2468 39.9819ZM45.9067 34.5419C48.0267 33.7819 51.8068 27.1819 50.5268 26.4819C49.3668 25.8619 48.1667 26.8219 46.0067 30.0819C45.0867 31.4619 44.1067 32.9219 43.8067 33.3219C42.9868 34.4419 44.2267 35.1619 45.9067 34.5419ZM40.0068 33.0019C41.3068 32.0619 38.8468 29.3019 35.6068 28.0819C33.5668 27.3219 28.2866 27.5419 27.9666 28.4019C27.6866 29.1419 28.4066 29.3619 30.9666 29.3019C33.7466 29.2419 34.8068 29.6219 36.0268 31.1619C37.7468 33.3219 38.8668 33.8419 40.0068 33.0019ZM53.3067 22.2219C54.7667 21.4619 56.5067 13.9619 55.4067 13.1419C53.6867 11.8819 52.5667 13.4819 51.9067 18.1219C51.3067 22.4219 51.5467 23.1419 53.3067 22.2219ZM55.4667 9.24187C56.6267 8.68187 56.6067 1.18187 55.4667 0.441872C53.3667 -0.898128 52.4867 0.821875 52.8667 5.42188C53.2267 9.64188 53.5667 10.1619 55.4667 9.24187Z" fill="#0B5FFF"/>
</svg>
