<svg width="32" height="32" viewBox="0 0 32 32" fill="none" xmlns="http://www.w3.org/2000/svg">
<circle cx="16" cy="16" r="14.75" fill="white" stroke="#0B5FFF" stroke-width="1.5"/>
<path fill-rule="evenodd" clip-rule="evenodd" d="M10.1667 16.0035C10.1667 12.7837 12.7849 10.1667 16 10.1667C19.2151 10.1667 21.8333 12.7837 21.8333 16.0035C21.8333 19.2164 19.2151 21.8334 16 21.8334C12.7849 21.8334 10.1667 19.2164 10.1667 16.0035ZM18.1396 16.5938C18.2016 16.5319 18.2804 16.4362 18.2973 16.4137C18.3874 16.2955 18.4324 16.1492 18.4324 16.0035C18.4324 15.8397 18.3818 15.6877 18.286 15.5639C18.2782 15.5561 18.2628 15.5394 18.2428 15.5176C18.2054 15.4768 18.1516 15.4183 18.1002 15.3669C17.6385 14.8717 16.4336 14.0613 15.8029 13.8136C15.7072 13.7748 15.4651 13.6898 15.3356 13.6842C15.2117 13.6842 15.0935 13.7123 14.9809 13.7686C14.8401 13.8474 14.7275 13.9712 14.6655 14.1175C14.6261 14.2188 14.5642 14.5228 14.5642 14.5284C14.5023 14.8604 14.4685 15.4007 14.4685 15.9973C14.4685 16.5662 14.5023 17.0835 14.5529 17.4211C14.5543 17.4225 14.5592 17.4467 14.5667 17.4842C14.5896 17.5983 14.6372 17.8359 14.6881 17.9333C14.8119 18.1696 15.0541 18.316 15.3131 18.316H15.3356C15.5045 18.3103 15.8592 18.164 15.8592 18.1584C16.4561 17.9108 17.6329 17.1397 18.1059 16.6276L18.1396 16.5938Z" fill="#0B5FFF"/>
</svg>
